<?xml version="1.0" encoding="utf-8"?>
<!-- Svg Vector Icons : http://www.onlinewebfonts.com/icon -->
<!DOCTYPE svg PUBLIC "-//W3C//DTD SVG 1.1//EN" "http://www.w3.org/Graphics/SVG/1.1/DTD/svg11.dtd">
<svg version="1.1" xmlns="http://www.w3.org/2000/svg" xmlns:xlink="http://www.w3.org/1999/xlink" x="0px" y="0px" viewBox="0 0 1000 1000" enable-background="new 0 0 1000 1000" xml:space="preserve">
<g><path fill="#F4C600" d="M902.7,78.5c-5.9-18.8-19.5-31-34.9-31H757.7c-0.2-23.6-1.2-37.5-1.2-37.5L500,10H243.5c0,0-0.9,13.9-1.2,37.5H132.2c-15.4,0-29,12.2-34.9,31c-14.9,48.5,22.6,240.3,90.5,317.9c24.9,28.4,55,46.1,88.9,52.4c9.3,4.1,16.6,13.1,15.8,20.1c-1.2,11.8-18.7,13.8-11.3,36.8c8.2,25.6,53,12.8,59.9-28.2c23.7,33.3,53,61,89.2,79.2c46.9,23.7,14,274.3,14,300.1c0,0-74.8,0-88,24.9c-8.1,15.4-6.6,33.2-6.6,33.2s-48.4,19.3-48.4,44.2c0,24.9,0,30.8,0,30.8H500h198.8c0,0,0-5.9,0-30.8c0-24.9-48.4-44.2-48.4-44.2s1.6-17.8-6.6-33.2c-13.2-24.9-88-24.9-88-24.9c0-25.8-33-276.4,14-300.1c36.2-18.3,65.5-45.9,89.2-79.2c6.9,41,51.8,53.8,60,28.2c7.3-23-10.2-25.1-11.4-36.8c-0.8-7,6.5-16,15.8-20.1c33.9-6.4,64-24,88.9-52.4C880.1,318.8,917.6,127,902.7,78.5z M132.2,90.8c11.6,0,76.8,0,110.4,0c2.1,82.2,13.4,211.9,59.7,317.5c-35.8-0.8-66.5-15.3-91.3-43.8C146.7,291,116.5,90.8,132.2,90.8z M789,364.5c-24.9,28.4-55.5,43-91.3,43.8C744,302.7,755.4,173,757.4,90.8c33.7,0,98.9,0,110.4,0C883.5,90.8,853.3,291,789,364.5z"/></g>
</svg>